<svg width="1734" height="1730" viewBox="0 0 1734 1730" fill="none" xmlns="http://www.w3.org/2000/svg">
<g clip-path="url(#clip0_206_286)">
<path d="M272.133 13.8667C262.933 23.0667 258.933 28 260 28.6667C261.067 29.3333 266.533 24.8 275.2 16.1333L288.667 2.66667L302 16C313.867 27.8667 318.667 31.4667 318.667 28.2667C318.667 26 291.067 0 288.667 0C287.067 0 280.533 5.46667 272.133 13.8667Z" fill="black"/>
<path d="M850.267 13.0667C838 25.3334 835.2 29.3334 838.933 29.3334C839.867 29.3334 846.533 23.4667 853.6 16.4L866.667 3.33335L879.733 16.4C886.8 23.4667 893.467 29.3334 894.4 29.3334C898.133 29.3334 895.333 25.2 882.933 12.9334C873.467 3.46669 869.067 2.03474e-05 866.667 2.03474e-05C864.133 2.03474e-05 859.867 3.46669 850.267 13.0667Z" fill="black"/>
<path d="M1428.13 13.8667C1418.93 23.2 1414.93 28 1416 28.6667C1417.07 29.3333 1422.4 24.8 1431.2 16.1333L1444.67 2.66667L1458.13 16.1333C1466.8 24.8 1472.27 29.3333 1473.33 28.6667C1475.6 27.3333 1448.27 6.13724e-06 1444.67 6.13724e-06C1442.93 6.13724e-06 1436.67 5.33334 1428.13 13.8667Z" fill="black"/>
<path d="M207.467 78.5334C197.867 88.2667 193.6 93.3334 194.667 94.0001C195.733 94.6667 201.467 89.8667 210.8 80.5334C223.467 67.8667 226.267 64.0001 222.933 64.0001C222.4 64.0001 215.467 70.5334 207.467 78.5334Z" fill="black"/>
<path d="M354 65.3335C352.533 67.6001 380.8 95.7335 382.667 93.8668C383.467 93.0668 379.2 87.8668 369.467 78.1335C359.733 68.4001 354.667 64.2668 354 65.3335Z" fill="black"/>
<path d="M785.333 78C774.267 89.0667 771.733 92.2667 773.067 93.6C774.4 94.9334 777.6 92.4 788.667 81.3334C796.4 73.6 802.533 66.8 802.267 66.1334C801.2 62.9334 798.4 64.9334 785.333 78Z" fill="black"/>
<path d="M931.2 65.4666C930.667 66.4 936.267 72.9333 944.4 81.0666C955.733 92.4 958.933 94.9333 960.267 93.6C961.6 92.2666 959.067 89.0666 948 78C940.267 70.2666 933.6 64 933.067 64C932.533 64 931.733 64.6666 931.2 65.4666Z" fill="black"/>
<path d="M1363.47 78.5332C1353.73 88.2666 1349.6 93.3332 1350.67 93.9999C1352.93 95.4666 1381.07 67.1999 1379.2 65.3332C1378.4 64.5332 1373.2 68.7999 1363.47 78.5332Z" fill="black"/>
<path d="M1508.8 65.0667C1507.73 66.9334 1536.8 95.0667 1538.67 94.0001C1539.73 93.3334 1535.47 88.2667 1525.87 78.5334C1517.87 70.5334 1510.93 64.0001 1510.4 64.0001C1509.87 64.0001 1509.2 64.5334 1508.8 65.0667Z" fill="black"/>
<path d="M146.933 139.067C141.6 144.4 137.333 149.867 137.333 151.333C137.333 153.2 140.4 150.933 148.533 142.8C158.533 132.8 160.933 129.333 157.6 129.333C157.067 129.333 152.267 133.733 146.933 139.067Z" fill="black"/>
<path d="M418.133 130.267C417.2 131.2 445.067 160 446.933 160C450.133 160 446.533 155.2 434.267 142.933C426.8 135.467 420.267 129.333 419.867 129.333C419.467 129.333 418.667 129.733 418.133 130.267Z" fill="black"/>
<path d="M720 143.333C708.933 154.4 706.4 157.6 707.733 158.933C709.067 160.267 712.267 157.733 723.333 146.667C731.067 138.933 737.2 132.133 736.933 131.467C735.867 128.267 733.067 130.267 720 143.333Z" fill="black"/>
<path d="M996.533 130.8C996 131.733 1001.6 138.267 1009.73 146.4C1021.07 157.733 1024.27 160.267 1025.6 158.933C1026.93 157.6 1024.4 154.4 1013.33 143.333C1005.6 135.6 998.933 129.333 998.4 129.333C997.867 129.333 997.067 130 996.533 130.8Z" fill="black"/>
<path d="M1304.8 137.2C1299.6 142.4 1297.6 145.333 1298.67 146C1300.53 147.067 1316.27 132.267 1315.2 130.4C1314 128.4 1312.67 129.333 1304.8 137.2Z" fill="black"/>
<path d="M1574.13 130.4C1573.73 131.067 1580 138 1587.87 145.867C1597.6 155.6 1602.67 159.733 1603.33 158.667C1604 157.6 1599.33 152 1590.53 143.2C1582.93 135.6 1576.27 129.333 1575.73 129.333C1575.2 129.333 1574.53 129.867 1574.13 130.4Z" fill="black"/>
<path d="M1287.6 154.133C1287.07 154.667 1286.67 156.4 1286.67 157.867C1286.67 160.4 1286.8 160.4 1288.93 158.267C1290.53 156.8 1290.8 155.6 1289.87 154.667C1289.07 153.867 1288.13 153.733 1287.6 154.133Z" fill="black"/>
<path d="M78 208C68.2667 217.733 63.8667 223.067 64.8 224C65.6 224.8 70.9333 220.4 80.6667 210.667C90.4 200.933 94.8 195.6 93.8667 194.667C93.0667 193.867 87.7333 198.267 78 208Z" fill="black"/>
<path d="M1061.6 194.933C1060.4 196.4 1063.07 199.733 1074.53 211.2C1086.13 222.667 1089.2 225.2 1090.4 223.733C1091.6 222.267 1088.93 218.933 1077.47 207.467C1065.87 196 1062.8 193.467 1061.6 194.933Z" fill="black"/>
<path d="M483.467 195.733C483.067 196.4 489.333 203.333 497.2 211.2C506.933 220.933 512 225.067 512.667 224C513.333 222.933 508.667 217.333 499.867 208.533C492.267 200.933 485.6 194.667 485.067 194.667C484.533 194.667 483.867 195.2 483.467 195.733Z" fill="black"/>
<path d="M654.933 208.4C644.133 219.2 641.6 222.4 642.933 223.733C644.267 225.067 647.467 222.533 658.267 211.733C671.333 198.8 674.133 194.667 670.267 194.667C669.333 194.667 662.533 200.8 654.933 208.4Z" fill="black"/>
<path d="M1233.47 208.533C1224.67 217.333 1220 222.933 1220.67 224C1221.33 225.067 1226.4 220.933 1236.13 211.2C1248.8 198.533 1251.6 194.667 1248.27 194.667C1247.73 194.667 1241.07 200.933 1233.47 208.533Z" fill="black"/>
<path d="M1638.67 195.733C1638.67 196.267 1645.2 203.2 1653.2 211.2C1662.93 220.8 1668 225.067 1668.67 224C1669.33 222.933 1664.67 217.333 1655.87 208.533C1643.47 196.133 1638.67 192.533 1638.67 195.733Z" fill="black"/>
<path d="M13.6 272.4C5.46667 280.533 0 287.067 0 288.667C0 292.4 27.3333 319.6 28.6667 317.333C29.3333 316.267 24.8 310.933 16.1333 302.133L2.66667 288.667L16.2667 275.067C25.3333 265.867 29.4667 260.933 28.5333 260C27.7333 259.2 22.6667 263.2 13.6 272.4Z" fill="black"/>
<path d="M548.667 260C548 261.067 552.533 266.533 561.2 275.2L574.667 288.667L561.067 302.267C550.267 313.2 547.733 316.267 549.067 317.6C550.4 318.933 553.467 316.4 564.4 305.6L578 292L591.467 305.467C600.267 314.133 605.6 318.667 606.667 318C607.733 317.333 603.733 312.533 594.533 303.2L580.667 289.333L594.667 275.333C605.733 264.267 608.267 261.067 606.933 259.733C605.6 258.4 602.4 260.933 591.333 272L577.333 286L563.467 272.133C554.267 262.933 549.333 258.933 548.667 260Z" fill="black"/>
<path d="M1126.93 260.267C1125.6 261.6 1128.13 264.8 1138.93 275.6L1152.67 289.333L1138.8 303.2C1129.6 312.4 1125.6 317.333 1126.67 318C1127.73 318.667 1133.2 314.133 1141.87 305.467L1155.47 291.867L1169.07 305.6C1179.87 316.533 1182.93 318.933 1184.27 317.6C1185.6 316.267 1183.2 313.2 1172.27 302.267L1158.67 288.667L1172.13 275.2C1180.8 266.533 1185.33 261.067 1184.67 260C1184 258.933 1179.07 262.933 1169.87 272.133L1156 286L1142.27 272.267C1131.47 261.467 1128.27 258.933 1126.93 260.267Z" fill="black"/>
<path d="M1704.67 260C1704 261.067 1708.53 266.533 1717.2 275.2L1730.67 288.667L1717.2 302.133C1708.53 310.933 1704 316.267 1704.67 317.333C1706 319.6 1733.33 292.4 1733.33 288.667C1733.33 285.067 1706 257.733 1704.67 260Z" fill="black"/>
<path d="M64.8 354.4C64.4 355.067 70.6667 362 78.5333 369.867C88.2667 379.6 93.3333 383.733 94 382.667C94.6667 381.6 90 376 81.2 367.2C73.6 359.6 66.9333 353.333 66.4 353.333C65.8667 353.333 65.2 353.867 64.8 354.4Z" fill="black"/>
<path d="M496 367.333C484.933 378.4 482.4 381.6 483.733 382.933C485.067 384.267 488.267 381.733 499.333 370.667C507.067 362.933 513.333 356 513.333 355.067C513.333 351.2 509.2 354.133 496 367.333Z" fill="black"/>
<path d="M642.133 354.4C641.733 355.067 648 362 655.867 369.867C665.6 379.6 670.667 383.733 671.333 382.667C672 381.6 667.333 376 658.533 367.2C650.933 359.6 644.267 353.333 643.733 353.333C643.2 353.333 642.533 353.867 642.133 354.4Z" fill="black"/>
<path d="M1074.8 367.2C1066 376 1061.33 381.6 1062 382.667C1062.67 383.733 1067.73 379.6 1077.47 369.867C1090.13 357.2 1092.93 353.333 1089.6 353.333C1089.07 353.333 1082.4 359.6 1074.8 367.2Z" fill="black"/>
<path d="M1220 355.067C1220 356 1226.27 362.933 1234 370.667C1245.07 381.733 1248.27 384.267 1249.6 382.933C1250.93 381.6 1248.4 378.4 1237.33 367.333C1224.13 354.133 1220 351.2 1220 355.067Z" fill="black"/>
<path d="M1652.13 367.2C1643.33 376 1638.67 381.6 1639.33 382.667C1640 383.733 1645.07 379.6 1654.8 369.867C1667.47 357.2 1670.27 353.333 1666.93 353.333C1666.4 353.333 1659.73 359.6 1652.13 367.2Z" fill="black"/>
<path d="M130 418.667C129.333 419.733 134 425.333 142.8 434.133C155.2 446.533 160 450.133 160 446.933C160 446.4 153.467 439.467 145.467 431.467C135.733 421.867 130.667 417.6 130 418.667Z" fill="black"/>
<path d="M431.467 431.867C420 443.467 417.467 446.533 418.933 447.733C420.4 448.933 423.733 446.267 435.2 434.8C446.667 423.2 449.2 420.133 447.733 418.933C446.267 417.733 442.933 420.4 431.467 431.867Z" fill="black"/>
<path d="M707.6 419.067C706.667 421.6 735.333 450.267 736.667 448C737.333 446.933 732.533 441.2 723.067 431.733C712.8 421.467 708.133 417.6 707.6 419.067Z" fill="black"/>
<path d="M1010 432C1000.27 441.733 995.867 447.067 996.8 448C997.6 448.8 1002.93 444.4 1012.67 434.667C1022.4 424.933 1026.8 419.6 1025.87 418.667C1025.07 417.867 1019.73 422.267 1010 432Z" fill="black"/>
<path d="M1587.47 431.867C1577.73 441.6 1573.6 446.667 1574.67 447.333C1576.93 448.8 1605.07 420.533 1603.2 418.667C1602.4 417.867 1597.2 422.133 1587.47 431.867Z" fill="black"/>
<path d="M1284.8 419.6C1284.27 420.133 1290.4 426.934 1298.27 434.934C1309.6 446.267 1312.93 448.933 1314.4 447.733C1315.87 446.533 1313.47 443.6 1302.4 432.4C1289.33 419.2 1286.93 417.467 1284.8 419.6Z" fill="black"/>
<path d="M195.333 484C193.867 486.267 222.133 514.4 224 512.533C224.8 511.733 220.533 506.533 210.8 496.8C201.067 487.067 196 482.933 195.333 484Z" fill="black"/>
<path d="M366.933 496.4C354 509.333 351.2 513.333 355.067 513.333C357.733 513.333 384.4 485.867 383.467 484.133C382.933 483.333 382.133 482.667 381.6 482.667C381.067 482.667 374.533 488.8 366.933 496.4Z" fill="black"/>
<path d="M772.667 484C771.2 486.267 799.467 514.4 801.333 512.533C802.133 511.733 797.867 506.533 788.133 496.8C778.4 487.067 773.333 482.933 772.667 484Z" fill="black"/>
<path d="M944.8 497.2C935.067 506.933 930.933 512 932 512.667C934.267 514.133 962.4 485.867 960.533 484C959.733 483.2 954.533 487.467 944.8 497.2Z" fill="black"/>
<path d="M1349.87 484.133C1348.93 485.867 1375.6 513.333 1378.27 513.333C1379.2 513.333 1380 512.533 1380 511.6C1380 510 1353.33 482.667 1351.73 482.667C1351.2 482.667 1350.4 483.333 1349.87 484.133Z" fill="black"/>
<path d="M1522.13 497.2C1512.4 506.933 1508.27 512 1509.33 512.667C1511.6 514.133 1539.73 485.867 1537.87 484C1537.07 483.2 1531.87 487.467 1522.13 497.2Z" fill="black"/>
<path d="M259.467 548.933C258.933 549.467 264.8 556 272.267 563.6L286 577.333L272 591.333C260.933 602.4 258.4 605.6 259.733 606.933C261.067 608.267 264.267 605.733 275.333 594.667L289.333 580.667L303.2 594.533C312.533 603.733 317.333 607.733 318 606.667C318.667 605.6 314.133 600.267 305.467 591.467L292 578L305.6 564.4C316.4 553.6 318.933 550.4 317.6 549.067C316.267 547.733 313.067 550.267 302.267 561.067L288.667 574.667L275.333 561.333C268 554 261.733 548 261.2 548C260.8 548 260 548.4 259.467 548.933Z" fill="black"/>
<path d="M838 549.333C837.333 550.4 841.867 555.867 850.533 564.533L864 578L850.533 591.467C841.867 600.267 837.333 605.6 838 606.667C838.667 607.733 843.467 603.733 852.8 594.533L866.667 580.667L880.533 594.533C889.867 603.733 894.667 607.733 895.333 606.667C896 605.6 891.467 600.267 882.8 591.467L869.333 578L882.8 564.533C891.467 555.867 896 550.4 895.333 549.333C894.667 548.267 889.733 552.267 880.533 561.467L866.667 575.333L852.8 561.467C843.6 552.267 838.667 548.267 838 549.333Z" fill="black"/>
<path d="M1415.2 549.467C1414.67 550.267 1420.13 556.667 1427.87 564.533L1441.33 578L1427.87 591.467C1419.2 600.267 1414.67 605.6 1415.33 606.667C1416 607.733 1420.8 603.733 1430.13 594.533L1444 580.667L1457.73 594.4C1468.53 605.2 1471.73 607.733 1473.07 606.4C1474.4 605.067 1471.87 601.867 1461.07 591.067L1447.33 577.333L1461.2 563.467C1470.4 554.267 1474.4 549.333 1473.33 548.667C1472.27 548 1466.8 552.533 1458.13 561.2L1444.67 574.667L1431.33 561.333C1424 554 1417.6 548 1417.07 548C1416.53 548 1415.73 548.667 1415.2 549.467Z" fill="black"/>
<path d="M208.267 655.067C200.8 662.533 194.667 669.467 194.667 670.4C194.667 674.133 198.8 671.2 211.733 658.267C222.8 647.067 225.2 644.133 223.733 642.933C222.267 641.733 219.067 644.267 208.267 655.067Z" fill="black"/>
<path d="M354 642.667C352.533 644.933 380.8 673.067 382.667 671.2C383.467 670.4 379.2 665.2 369.467 655.467C359.733 645.734 354.667 641.6 354 642.667Z" fill="black"/>
<path d="M786.267 655.733C778.4 663.6 772 670.534 772 671.067C772 674.134 776.933 670.4 789.333 658C798.533 648.667 802.8 643.6 801.867 642.667C801.067 641.867 795.867 646.133 786.267 655.733Z" fill="black"/>
<path d="M931.333 642.667C930.667 643.733 935.333 649.333 944.133 658.133C956.533 670.533 961.333 674.133 961.333 670.933C961.333 670.4 954.8 663.467 946.8 655.467C937.067 645.867 932 641.6 931.333 642.667Z" fill="black"/>
<path d="M1363.47 655.867C1353.73 665.6 1349.6 670.667 1350.67 671.333C1352.93 672.8 1381.07 644.534 1379.2 642.667C1378.4 641.867 1373.2 646.134 1363.47 655.867Z" fill="black"/>
<path d="M1509.6 642.933C1508.27 644.267 1510.13 646.8 1518.27 654.933C1524 660.667 1529.73 665.333 1531.07 665.333C1532.53 665.333 1533.07 665.867 1532.53 666.933C1532 667.733 1532.13 668 1533.07 667.467C1533.87 666.933 1534.67 667.867 1534.93 669.6C1535.33 673.067 1537.73 673.733 1538.4 670.667C1538.53 669.6 1532.53 662.533 1524.93 654.933C1514.13 644.133 1510.93 641.6 1509.6 642.933Z" fill="black"/>
<path d="M142.667 720.667C131.6 731.733 129.067 734.933 130.4 736.267C131.733 737.6 134.933 735.067 146 724C159.067 710.933 161.067 708.133 157.867 707.067C157.2 706.8 150.4 712.933 142.667 720.667Z" fill="black"/>
<path d="M419.067 707.733C417.867 708.4 422.133 713.467 432 723.333C441.733 733.067 447.067 737.467 448 736.533C449.733 734.8 421.333 706.4 419.067 707.733Z" fill="black"/>
<path d="M720.8 721.2C711.067 730.934 706.933 736 708 736.667C710.267 738.133 738.4 709.867 736.533 708C735.733 707.2 730.533 711.467 720.8 721.2Z" fill="black"/>
<path d="M996.667 708C995.2 710.267 1023.47 738.4 1025.33 736.534C1026.13 735.734 1021.87 730.534 1012.13 720.8C1002.4 711.067 997.333 706.933 996.667 708Z" fill="black"/>
<path d="M1298 721.333C1288.4 730.933 1284.27 736 1285.33 736.667C1286.4 737.333 1292.13 732.533 1301.6 723.067C1311.87 712.8 1315.73 708.133 1314.27 707.6C1313.07 707.2 1307.33 712 1298 721.333Z" fill="black"/>
<path d="M1573.87 708.133C1573.33 709.067 1578.93 715.6 1587.07 723.733C1598.4 735.067 1601.6 737.6 1602.93 736.267C1604.27 734.933 1601.73 731.733 1590.67 720.667C1582.93 712.933 1576.27 706.667 1575.73 706.667C1575.2 706.667 1574.4 707.333 1573.87 708.133Z" fill="black"/>
<path d="M77.3333 786C66.2667 797.067 63.7333 800.267 65.0667 801.6C66.4 802.933 69.6 800.4 80.6667 789.333C93.7333 776.267 95.7333 773.467 92.5333 772.4C91.8667 772.133 85.0667 778.267 77.3333 786Z" fill="black"/>
<path d="M483.467 773.067C483.067 773.733 489.333 780.667 497.2 788.533C506.933 798.267 512 802.4 512.667 801.333C513.333 800.267 508.667 794.667 499.867 785.867C492.267 778.267 485.6 772 485.067 772C484.533 772 483.867 772.533 483.467 773.067Z" fill="black"/>
<path d="M655.467 786.533C645.867 796.267 641.6 801.333 642.667 802C643.733 802.667 649.333 798 658.133 789.2C670.533 776.8 674.133 772 670.933 772C670.4 772 663.467 778.533 655.467 786.533Z" fill="black"/>
<path d="M1061.33 773.733C1061.33 776.533 1088.8 803.067 1090.67 802C1091.73 801.333 1087.47 796.267 1077.87 786.533C1069.87 778.533 1062.93 772 1062.4 772C1061.73 772 1061.33 772.8 1061.33 773.733Z" fill="black"/>
<path d="M1233.47 785.867C1224.67 794.667 1220 800.267 1220.67 801.333C1221.33 802.4 1226.4 798.267 1236.13 788.533C1248.8 775.867 1251.6 772 1248.27 772C1247.73 772 1241.07 778.267 1233.47 785.867Z" fill="black"/>
<path d="M1639.2 773.467C1638.67 774.4 1644.27 780.934 1652.4 789.067C1663.73 800.4 1666.93 802.933 1668.27 801.6C1669.6 800.267 1667.07 797.067 1656 786C1648.27 778.267 1641.6 772 1641.07 772C1640.53 772 1639.73 772.667 1639.2 773.467Z" fill="black"/>
<path d="M13.6 849.733C3.6 859.733 0 864.267 0 866.667C0 869.2 3.46667 873.467 13.0667 883.067C20.1333 890.133 26.8 896 27.7333 896C31.4667 896 28.6667 892 16.4 879.733L3.33333 866.667L16.4 853.6C23.4667 846.533 29.3333 839.867 29.3333 839.067C29.3333 834.933 26.1333 837.2 13.6 849.733Z" fill="black"/>
<path d="M1704.53 837.867C1703.87 839.733 1706.8 843.333 1716.8 853.467L1730 866.667L1716.93 879.733C1709.87 886.8 1704 893.467 1704 894.4C1704 898.133 1708.13 895.333 1720.4 882.933C1729.87 873.467 1733.33 869.067 1733.33 866.667C1733.33 861.733 1705.87 834.4 1704.53 837.867Z" fill="black"/>
<path d="M548.8 838.267C548.267 838.8 554.133 845.333 561.6 852.933L575.333 866.667L561.467 880.533C552.267 889.733 548.267 894.667 549.333 895.333C550.4 896 555.867 891.467 564.533 882.8L578 869.333L591.467 882.8C600.267 891.467 605.6 896 606.667 895.333C607.733 894.667 603.733 889.867 594.533 880.533L580.667 866.667L594.533 852.8C603.733 843.6 607.733 838.667 606.667 838C605.6 837.333 600.133 841.867 591.467 850.533L578 864L564.667 850.667C557.333 843.333 551.067 837.333 550.533 837.333C550.133 837.333 549.333 837.733 548.8 838.267Z" fill="black"/>
<path d="M1126.13 838.267C1125.6 838.8 1131.47 845.333 1138.93 852.933L1152.67 866.667L1138.8 880.533C1129.6 889.733 1125.6 894.667 1126.67 895.333C1127.73 896 1133.2 891.467 1141.87 882.8L1155.33 869.333L1168.67 882.667C1180.53 894.533 1185.33 898.133 1185.33 895.067C1185.33 894.533 1179.2 887.867 1171.73 880.4L1158 866.667L1171.87 852.8C1181.07 843.6 1185.07 838.667 1184 838C1182.93 837.333 1177.47 841.867 1168.8 850.533L1155.33 864L1142 850.667C1134.67 843.333 1128.4 837.333 1127.87 837.333C1127.47 837.333 1126.67 837.733 1126.13 838.267Z" fill="black"/>
<path d="M64.5333 932.133C64 933.067 69.6 939.6 77.7333 947.733C89.0667 959.067 92.2667 961.6 93.6 960.267C94.9333 958.933 92.4 955.733 81.3333 944.667C73.6 936.933 66.9333 930.667 66.4 930.667C65.8667 930.667 65.0667 931.333 64.5333 932.133Z" fill="black"/>
<path d="M496.8 945.2C487.067 954.934 482.933 960 484 960.667C486.267 962.133 514.4 933.867 512.533 932C511.733 931.2 506.533 935.467 496.8 945.2Z" fill="black"/>
<path d="M642.133 931.6C641.2 932.533 669.067 961.333 670.933 961.333C674.133 961.333 670.533 956.533 658.267 944.267C650.8 936.8 644.267 930.667 643.867 930.667C643.467 930.667 642.667 931.067 642.133 931.6Z" fill="black"/>
<path d="M1074 945.333C1064.4 954.933 1060.27 960 1061.33 960.667C1062.4 961.333 1068.13 956.533 1077.6 947.067C1087.87 936.8 1091.73 932.133 1090.27 931.6C1089.07 931.2 1083.33 936 1074 945.333Z" fill="black"/>
<path d="M1220.67 932C1219.2 934.267 1247.47 962.4 1249.33 960.534C1250.13 959.734 1245.87 954.534 1236.13 944.8C1226.4 935.067 1221.33 930.933 1220.67 932Z" fill="black"/>
<path d="M1652 944.667C1640.93 955.733 1638.4 958.933 1639.73 960.267C1641.07 961.6 1644.27 959.067 1655.33 948C1668.4 934.933 1670.4 932.133 1667.2 931.067C1666.53 930.8 1659.73 936.933 1652 944.667Z" fill="black"/>
<path d="M129.867 997.467C129.333 998.4 134.933 1004.93 143.067 1013.07C154.4 1024.4 157.6 1026.93 158.933 1025.6C160.267 1024.27 157.733 1021.07 146.667 1010C138.933 1002.27 132.267 996 131.733 996C131.2 996 130.4 996.667 129.867 997.467Z" fill="black"/>
<path d="M431.467 1010.53C421.867 1020.27 417.6 1025.33 418.667 1026C419.733 1026.67 425.333 1022 434.133 1013.2C446.533 1000.8 450.133 996 446.933 996C446.4 996 439.467 1002.53 431.467 1010.53Z" fill="black"/>
<path d="M707.467 997.067C707.067 997.733 713.333 1004.67 721.2 1012.53C730.933 1022.27 736 1026.4 736.667 1025.33C737.333 1024.27 732.667 1018.67 723.867 1009.87C716.267 1002.27 709.6 996 709.067 996C708.533 996 707.867 996.533 707.467 997.067Z" fill="black"/>
<path d="M1009.47 1009.87C1000.67 1018.67 996 1024.27 996.667 1025.33C997.333 1026.4 1002.4 1022.27 1012.13 1012.53C1024.8 999.867 1027.6 996 1024.27 996C1023.73 996 1017.07 1002.27 1009.47 1009.87Z" fill="black"/>
<path d="M1284.8 996.933C1283.33 998.4 1312.13 1026.53 1314.27 1025.73C1315.6 1025.2 1311.87 1020.53 1301.87 1010.53C1293.87 1002.53 1287.07 996 1286.53 996C1286.13 996 1285.33 996.4 1284.8 996.933Z" fill="black"/>
<path d="M1586.67 1010C1575.6 1021.07 1573.07 1024.27 1574.4 1025.6C1575.73 1026.93 1578.93 1024.4 1590 1013.33C1603.07 1000.27 1605.07 997.467 1601.87 996.4C1601.2 996.133 1594.4 1002.27 1586.67 1010Z" fill="black"/>
<path d="M194.933 1061.6C193.733 1063.07 196.4 1066.4 207.867 1077.87C219.467 1089.33 222.533 1091.87 223.733 1090.4C224.933 1088.93 222.267 1085.6 210.8 1074.13C199.2 1062.67 196.133 1060.13 194.933 1061.6Z" fill="black"/>
<path d="M772.667 1061.33C771.333 1063.6 800.133 1092.4 801.867 1090.67C802.8 1089.73 798.4 1084.4 788.533 1074.53C778.533 1064.53 773.333 1060.27 772.667 1061.33Z" fill="black"/>
<path d="M944.667 1074.67C934.933 1084.4 930.533 1089.73 931.467 1090.67C932.267 1091.47 937.6 1087.07 947.333 1077.33C957.067 1067.6 961.467 1062.27 960.533 1061.33C959.733 1060.53 954.4 1064.93 944.667 1074.67Z" fill="black"/>
<path d="M1522.27 1074.4C1510.93 1085.73 1508.27 1089.07 1509.6 1090.4C1510.93 1091.73 1514.13 1089.2 1524.93 1078.4C1532.53 1070.8 1538.67 1064 1538.67 1063.07C1538.67 1058.93 1535.47 1061.2 1522.27 1074.4Z" fill="black"/>
<path d="M366.8 1075.2C358 1084 353.333 1089.6 354 1090.67C354.667 1091.73 359.733 1087.6 369.467 1077.87C382.133 1065.2 384.933 1061.33 381.6 1061.33C381.067 1061.33 374.4 1067.6 366.8 1075.2Z" fill="black"/>
<path d="M1350.13 1062.4C1349.73 1063.07 1356 1070 1363.87 1077.87C1373.6 1087.6 1378.67 1091.73 1379.33 1090.67C1380 1089.6 1375.33 1084 1366.53 1075.2C1358.93 1067.6 1352.27 1061.33 1351.73 1061.33C1351.2 1061.33 1350.53 1061.87 1350.13 1062.4Z" fill="black"/>
<path d="M260.267 1126.93C258.933 1128.27 261.467 1131.47 272.267 1142.27L286 1156L272.133 1169.87C262.933 1179.07 258.933 1184 260 1184.67C261.067 1185.33 266.533 1180.8 275.2 1172.13L288.667 1158.67L302.267 1172.27C313.2 1183.2 316.267 1185.6 317.6 1184.27C318.933 1182.93 316.533 1179.87 305.6 1169.07L291.867 1155.47L305.467 1141.87C314.133 1133.2 318.667 1127.73 318 1126.67C317.333 1125.6 312.4 1129.6 303.2 1138.8L289.333 1152.67L275.6 1138.93C264.8 1128.13 261.6 1125.6 260.267 1126.93Z" fill="black"/>
<path d="M838 1126.67C837.333 1127.73 841.867 1133.2 850.533 1141.87L864 1155.33L850.533 1168.8C841.867 1177.6 837.333 1182.93 838 1184C838.667 1185.07 843.467 1181.07 852.8 1171.87L866.667 1158L880.4 1171.73C887.867 1179.2 894.533 1185.33 895.067 1185.33C898.133 1185.33 894.533 1180.53 882.667 1168.67L869.333 1155.33L882.8 1141.87C891.467 1133.2 896 1127.73 895.333 1126.67C894.667 1125.6 889.733 1129.6 880.533 1138.8L866.667 1152.67L852.8 1138.8C843.6 1129.6 838.667 1125.6 838 1126.67Z" fill="black"/>
<path d="M1415.33 1126.67C1414.67 1127.73 1419.2 1133.2 1427.87 1141.87L1441.33 1155.33L1427.73 1168.93C1416.93 1179.87 1414.4 1182.93 1415.73 1184.27C1417.07 1185.6 1420.13 1183.07 1431.07 1172.27L1444.67 1158.67L1458.13 1172.13C1466.93 1180.8 1472.27 1185.33 1473.33 1184.67C1474.4 1184 1470.4 1179.2 1461.2 1169.87L1447.33 1156L1461.07 1142.27C1471.87 1131.47 1474.4 1128.27 1473.07 1126.93C1471.73 1125.6 1468.53 1128.13 1457.73 1138.93L1444 1152.67L1430.13 1138.8C1420.93 1129.6 1416 1125.6 1415.33 1126.67Z" fill="black"/>
<path d="M208.133 1233.87C199.333 1242.67 194.667 1248.27 195.333 1249.33C196 1250.4 201.067 1246.27 210.8 1236.53C223.467 1223.87 226.267 1220 222.933 1220C222.4 1220 215.733 1226.27 208.133 1233.87Z" fill="black"/>
<path d="M353.333 1221.73C353.333 1222.67 359.6 1229.6 367.333 1237.33C378.4 1248.4 381.6 1250.93 382.933 1249.6C384.267 1248.27 381.733 1245.07 370.667 1234C357.467 1220.8 353.333 1217.87 353.333 1221.73Z" fill="black"/>
<path d="M785.467 1233.87C776.667 1242.67 772 1248.27 772.667 1249.33C773.333 1250.4 778.4 1246.27 788.133 1236.53C800.8 1223.87 803.6 1220 800.267 1220C799.733 1220 793.067 1226.27 785.467 1233.87Z" fill="black"/>
<path d="M931.467 1221.07C931.067 1221.73 937.333 1228.67 945.2 1236.53C954.933 1246.27 960 1250.4 960.667 1249.33C961.333 1248.27 956.667 1242.67 947.867 1233.87C940.267 1226.27 933.6 1220 933.067 1220C932.533 1220 931.867 1220.53 931.467 1221.07Z" fill="black"/>
<path d="M1362.67 1234C1351.6 1245.07 1349.07 1248.27 1350.4 1249.6C1351.73 1250.93 1354.93 1248.4 1366 1237.33C1373.73 1229.6 1380 1222.67 1380 1221.73C1380 1217.87 1375.87 1220.8 1362.67 1234Z" fill="black"/>
<path d="M1508.8 1221.07C1508.4 1221.73 1514.67 1228.67 1522.53 1236.53C1532.27 1246.27 1537.33 1250.4 1538 1249.33C1538.67 1248.27 1534 1242.67 1525.2 1233.87C1517.6 1226.27 1510.93 1220 1510.4 1220C1509.87 1220 1509.2 1220.53 1508.8 1221.07Z" fill="black"/>
<path d="M419.2 1285.87C417.867 1289.33 445.467 1317.07 447.733 1314.4C448.933 1312.93 446.267 1309.6 434.667 1298C422.667 1286 420 1283.87 419.2 1285.87Z" fill="black"/>
<path d="M720.933 1298.4C711.733 1307.6 707.067 1313.2 707.733 1314.27C708.4 1315.47 713.467 1311.2 723.333 1301.33C733.067 1291.6 737.467 1286.27 736.533 1285.33C735.733 1284.53 730.533 1288.8 720.933 1298.4Z" fill="black"/>
<path d="M996.667 1285.33C995.333 1287.6 1024.13 1316.4 1025.87 1314.67C1026.8 1313.73 1022.4 1308.4 1012.53 1298.53C1002.53 1288.53 997.333 1284.27 996.667 1285.33Z" fill="black"/>
<path d="M1298.13 1298.53C1286.67 1310.13 1284.13 1313.2 1285.6 1314.4C1287.07 1315.6 1290.4 1312.93 1301.87 1301.47C1313.33 1289.87 1315.87 1286.8 1314.4 1285.6C1312.93 1284.4 1309.6 1287.07 1298.13 1298.53Z" fill="black"/>
<path d="M1574.27 1285.73C1573.33 1288.27 1602 1316.93 1603.33 1314.67C1604 1313.6 1599.2 1307.87 1589.73 1298.4C1579.47 1288.13 1574.8 1284.27 1574.27 1285.73Z" fill="black"/>
<path d="M142.8 1299.2C134 1308 129.333 1313.6 130 1314.67C130.667 1315.73 135.733 1311.6 145.467 1301.87C158.133 1289.2 160.933 1285.33 157.6 1285.33C157.067 1285.33 150.4 1291.6 142.8 1299.2Z" fill="black"/>
<path d="M78.1333 1363.87C68.4 1373.6 64.2667 1378.67 65.3333 1379.33C67.6 1380.8 95.7333 1352.53 93.8667 1350.67C93.0667 1349.87 87.8667 1354.13 78.1333 1363.87Z" fill="black"/>
<path d="M483.2 1350.8C482.267 1352.53 508.933 1380 511.6 1380C512.533 1380 513.333 1379.2 513.333 1378.27C513.333 1376.67 486.667 1349.33 485.067 1349.33C484.533 1349.33 483.733 1350 483.2 1350.8Z" fill="black"/>
<path d="M655.467 1363.87C645.733 1373.6 641.6 1378.67 642.667 1379.33C644.933 1380.8 673.067 1352.53 671.2 1350.67C670.4 1349.87 665.2 1354.13 655.467 1363.87Z" fill="black"/>
<path d="M1062 1350.67C1060.53 1352.93 1088.8 1381.07 1090.67 1379.2C1091.47 1378.4 1087.2 1373.2 1077.47 1363.47C1067.73 1353.73 1062.67 1349.6 1062 1350.67Z" fill="black"/>
<path d="M1233.47 1363.2C1222.93 1373.87 1219.87 1377.6 1220.53 1379.47C1221.33 1381.47 1224.13 1379.2 1236 1367.33C1244.13 1359.2 1250.53 1352.13 1250.27 1351.47C1249.2 1348.27 1246.4 1350.27 1233.47 1363.2Z" fill="black"/>
<path d="M1639.33 1350.67C1637.87 1352.93 1666.13 1381.07 1668 1379.2C1668.8 1378.4 1664.53 1373.2 1654.8 1363.47C1645.07 1353.73 1640 1349.6 1639.33 1350.67Z" fill="black"/>
<path d="M13.6 1428.4C5.46667 1436.53 0 1443.07 0 1444.67C0 1448.4 27.3333 1475.6 28.6667 1473.33C29.3333 1472.27 24.8 1466.93 16.1333 1458.13L2.66667 1444.67L16.2667 1431.07C25.3333 1421.87 29.4667 1416.93 28.5333 1416C27.7333 1415.2 22.6667 1419.2 13.6 1428.4Z" fill="black"/>
<path d="M548.533 1416.13C548 1416.93 553.467 1423.33 561.2 1431.2L574.667 1444.67L561.2 1458.13C552.533 1466.93 548 1472.27 548.667 1473.33C549.333 1474.4 554.133 1470.4 563.467 1461.2L577.333 1447.33L591.333 1461.33C602.4 1472.4 605.6 1474.93 606.933 1473.6C608.267 1472.27 605.733 1469.07 594.667 1458L580.667 1444L594.533 1430.13C603.733 1420.93 607.733 1416 606.667 1415.33C605.6 1414.67 600.133 1419.2 591.467 1427.87L578 1441.33L564.667 1428C557.333 1420.67 550.933 1414.67 550.4 1414.67C549.867 1414.67 549.067 1415.33 548.533 1416.13Z" fill="black"/>
<path d="M1126.13 1415.6C1125.6 1416.13 1131.47 1422.67 1138.93 1430.27L1152.67 1444L1139.07 1457.6C1128.53 1468.27 1125.73 1471.73 1126.67 1473.33C1127.73 1474.93 1130.67 1472.53 1142 1461.33L1156 1447.33L1169.87 1461.2C1179.2 1470.4 1184 1474.4 1184.67 1473.33C1185.33 1472.27 1180.8 1466.93 1172.13 1458.13L1158.67 1444.67L1172.27 1431.07C1183.07 1420.27 1185.6 1417.07 1184.27 1415.73C1182.93 1414.4 1179.73 1416.93 1168.93 1427.73L1155.33 1441.33L1142 1428C1134.67 1420.67 1128.4 1414.67 1127.87 1414.67C1127.47 1414.67 1126.67 1415.07 1126.13 1415.6Z" fill="black"/>
<path d="M1704.67 1416C1704 1417.07 1708.53 1422.53 1717.2 1431.2L1730.67 1444.67L1717.2 1458.13C1708.53 1466.93 1704 1472.27 1704.67 1473.33C1706 1475.6 1733.33 1448.4 1733.33 1444.67C1733.33 1441.07 1706 1413.73 1704.67 1416Z" fill="black"/>
<path d="M64.6667 1509.33C63.3333 1511.6 92.1333 1540.4 93.8667 1538.67C94.8 1537.73 90.4 1532.4 80.5333 1522.53C70.5333 1512.53 65.3333 1508.27 64.6667 1509.33Z" fill="black"/>
<path d="M496.8 1522.53C487.067 1532.27 482.933 1537.33 484 1538C486.267 1539.47 514.4 1511.2 512.533 1509.33C511.733 1508.53 506.533 1512.8 496.8 1522.53Z" fill="black"/>
<path d="M642.933 1509.6C641.6 1510.93 644.133 1514.13 654.933 1524.93C662.533 1532.53 669.333 1538.67 670.267 1538.67C674.4 1538.67 672.133 1535.47 658.933 1522.27C647.6 1510.93 644.267 1508.27 642.933 1509.6Z" fill="black"/>
<path d="M1074.13 1522.53C1062.67 1534.13 1060.13 1537.2 1061.6 1538.4C1063.07 1539.6 1066.4 1536.93 1077.87 1525.47C1089.33 1513.87 1091.87 1510.8 1090.4 1509.6C1088.93 1508.4 1085.6 1511.07 1074.13 1522.53Z" fill="black"/>
<path d="M1220.67 1509.33C1219.2 1511.6 1247.47 1539.73 1249.33 1537.87C1250.13 1537.07 1245.87 1531.87 1236.13 1522.13C1226.4 1512.4 1221.33 1508.27 1220.67 1509.33Z" fill="black"/>
<path d="M1652.67 1522.67C1642.93 1532.4 1638.53 1537.73 1639.47 1538.67C1640.27 1539.47 1645.6 1535.07 1655.33 1525.33C1665.07 1515.6 1669.47 1510.27 1668.53 1509.33C1667.73 1508.53 1662.4 1512.93 1652.67 1522.67Z" fill="black"/>
<path d="M130 1574.67C128.533 1576.93 156.8 1605.07 158.667 1603.2C159.467 1602.4 155.2 1597.2 145.467 1587.47C135.733 1577.73 130.667 1573.6 130 1574.67Z" fill="black"/>
<path d="M431.467 1587.87C421.733 1597.6 417.6 1602.67 418.667 1603.33C420.933 1604.8 449.067 1576.53 447.2 1574.67C446.4 1573.87 441.2 1578.13 431.467 1587.87Z" fill="black"/>
<path d="M707.2 1574.8C706.667 1575.73 712.267 1582.27 720.4 1590.4C731.733 1601.73 734.933 1604.27 736.267 1602.93C737.6 1601.6 735.067 1598.4 724 1587.33C716.267 1579.6 709.6 1573.33 709.067 1573.33C708.533 1573.33 707.733 1574 707.2 1574.8Z" fill="black"/>
<path d="M1009.6 1587.07C996.667 1600 993.867 1604 997.733 1604C1000.4 1604 1027.07 1576.53 1026.13 1574.8C1025.6 1574 1024.8 1573.33 1024.27 1573.33C1023.73 1573.33 1017.2 1579.47 1009.6 1587.07Z" fill="black"/>
<path d="M1285.73 1574.4C1284.53 1575.07 1288.8 1580.13 1298.67 1590C1308.4 1599.73 1313.73 1604.13 1314.67 1603.2C1316.4 1601.47 1288 1573.07 1285.73 1574.4Z" fill="black"/>
<path d="M1587.47 1587.87C1577.73 1597.6 1573.6 1602.67 1574.67 1603.33C1576.93 1604.8 1605.07 1576.53 1603.2 1574.67C1602.4 1573.87 1597.2 1578.13 1587.47 1587.87Z" fill="black"/>
<path d="M194.667 1640.4C194.667 1642.13 221.333 1669.33 223.067 1669.33C226.133 1669.33 222.533 1664.4 210.267 1652.27C202.8 1644.8 196.133 1638.67 195.6 1638.67C195.067 1638.67 194.667 1639.47 194.667 1640.4Z" fill="black"/>
<path d="M366.8 1652.53C358 1661.33 353.333 1666.93 354 1668C354.667 1669.07 359.733 1664.93 369.467 1655.2C382.133 1642.53 384.933 1638.67 381.6 1638.67C381.067 1638.67 374.4 1644.93 366.8 1652.53Z" fill="black"/>
<path d="M772.533 1640.13C772 1641.07 777.6 1647.6 785.733 1655.73C797.067 1667.07 800.267 1669.6 801.6 1668.27C802.933 1666.93 800.4 1663.73 789.333 1652.67C781.6 1644.93 774.933 1638.67 774.4 1638.67C773.867 1638.67 773.067 1639.33 772.533 1640.13Z" fill="black"/>
<path d="M944 1652.67C932.933 1663.73 930.4 1666.93 931.733 1668.27C933.067 1669.6 936.267 1667.07 947.333 1656C960.4 1642.93 962.4 1640.13 959.2 1639.07C958.533 1638.8 951.733 1644.93 944 1652.67Z" fill="black"/>
<path d="M1350.13 1639.73C1349.73 1640.4 1356 1647.33 1363.87 1655.2C1373.6 1664.93 1378.67 1669.07 1379.33 1668C1380 1666.93 1375.33 1661.33 1366.53 1652.53C1358.93 1644.93 1352.27 1638.67 1351.73 1638.67C1351.2 1638.67 1350.53 1639.2 1350.13 1639.73Z" fill="black"/>
<path d="M1522.13 1653.2C1512.53 1662.93 1508.27 1668 1509.33 1668.67C1510.4 1669.33 1516.13 1664.53 1525.47 1655.2C1538.13 1642.53 1540.93 1638.67 1537.6 1638.67C1537.07 1638.67 1530.13 1645.2 1522.13 1653.2Z" fill="black"/>
<path d="M837.867 1704.53C836.533 1708 858.4 1729.73 862.533 1729.07C864.933 1728.67 863.467 1726.67 852.133 1715.47C841.067 1704.53 838.667 1702.53 837.867 1704.53Z" fill="black"/>
<path d="M314 1705.2C313.067 1706.8 315.6 1708.4 317.333 1707.33C318.8 1706.4 317.867 1704 316 1704C315.333 1704 314.533 1704.53 314 1705.2Z" fill="black"/>
<path d="M880 1716.67C869.067 1727.73 867.867 1729.33 870.667 1729.33C873.067 1729.33 877.067 1726.27 885.067 1718.27C891.067 1712.27 896 1706.53 896 1705.6C896 1701.87 891.867 1704.67 880 1716.67Z" fill="black"/>
<path d="M1415.47 1705.2C1414.53 1706.53 1419.33 1711.07 1422.13 1711.47C1423.6 1711.73 1423.33 1710.8 1421.2 1707.87C1418.4 1703.87 1416.67 1703.07 1415.47 1705.2Z" fill="black"/>
<path d="M1461.73 1713.47C1460.8 1714.4 1460 1716.4 1460 1717.87C1460 1720.4 1460.13 1720.4 1462.13 1718.4C1463.33 1717.33 1464 1715.33 1463.73 1714.13C1463.47 1712.27 1463.07 1712.13 1461.73 1713.47Z" fill="black"/>
<path d="M270.667 1714.93C270.667 1716.13 271.867 1718.4 273.333 1720.13C275.867 1723.2 275.867 1723.2 276 1720.53C276 1719.07 274.8 1716.67 273.333 1715.33C271.067 1713.33 270.667 1713.2 270.667 1714.93Z" fill="black"/>
<path d="M302.933 1716.27C302 1717.2 301.333 1719.07 301.333 1720.53C301.333 1722.93 301.467 1723.07 304 1720.67C306.667 1718.27 307.6 1714.67 305.6 1714.67C305.067 1714.67 303.867 1715.33 302.933 1716.27Z" fill="black"/>
<path d="M1431.6 1721.2C1432 1722.67 1433.6 1725.07 1435.33 1726.67C1440 1731.07 1441.07 1727.33 1436.53 1722.53C1432.27 1718 1430.67 1717.6 1431.6 1721.2Z" fill="black"/>
<g clip-path="url(#clip1_206_286)">
<path d="M1719.47 -25.8664C1710.27 -35.0664 1705.33 -39.0664 1704.67 -37.9997C1704 -36.933 1708.53 -31.4664 1717.2 -22.7997L1730.67 -9.33304L1717.33 4.0003C1705.47 15.867 1701.87 20.667 1705.07 20.667C1707.33 20.667 1733.33 -6.93304 1733.33 -9.33304C1733.33 -10.933 1727.87 -17.4664 1719.47 -25.8664Z" fill="black" fill-opacity="0.16"/>
<path d="M1720.27 552.267C1708 540.001 1704 537.201 1704 540.934C1704 541.867 1709.87 548.534 1716.93 555.601L1730 568.667L1716.93 581.734C1709.87 588.801 1704 595.467 1704 596.401C1704 600.134 1708.13 597.334 1720.4 584.934C1729.87 575.467 1733.33 571.067 1733.33 568.667C1733.33 566.134 1729.87 561.867 1720.27 552.267Z" fill="black" fill-opacity="0.16"/>
<path d="M1719.47 1130.13C1710.13 1120.93 1705.33 1116.93 1704.67 1118C1704 1119.07 1708.53 1124.4 1717.2 1133.2L1730.67 1146.67L1717.2 1160.13C1708.53 1168.8 1704 1174.27 1704.67 1175.33C1706 1177.6 1733.33 1150.27 1733.33 1146.67C1733.33 1144.93 1728 1138.67 1719.47 1130.13Z" fill="black" fill-opacity="0.16"/>
<path d="M1668 56.0004C1665.73 54.5338 1637.6 82.8004 1639.47 84.6671C1640.27 85.4671 1645.47 81.2004 1655.2 71.4671C1664.93 61.7338 1669.07 56.6671 1668 56.0004Z" fill="black" fill-opacity="0.16"/>
<path d="M1655.33 487.334C1644.27 476.267 1641.07 473.734 1639.73 475.067C1638.4 476.401 1640.93 479.601 1652 490.667C1659.73 498.401 1666.53 504.534 1667.2 504.267C1670.4 503.201 1668.4 500.401 1655.33 487.334Z" fill="black" fill-opacity="0.16"/>
<path d="M1667.87 633.2C1666.93 632.667 1660.4 638.267 1652.27 646.4C1640.93 657.733 1638.4 660.933 1639.73 662.267C1641.07 663.6 1644.27 661.067 1655.33 650C1663.07 642.267 1669.33 635.6 1669.33 635.067C1669.33 634.533 1668.67 633.733 1667.87 633.2Z" fill="black" fill-opacity="0.16"/>
<path d="M1654.8 1065.47C1645.07 1055.73 1640 1051.6 1639.33 1052.67C1637.87 1054.93 1666.13 1083.07 1668 1081.2C1668.8 1080.4 1664.53 1075.2 1654.8 1065.47Z" fill="black" fill-opacity="0.16"/>
<path d="M1668.27 1210.8C1666.4 1209.73 1638.27 1238.8 1639.33 1240.67C1640 1241.73 1645.07 1237.47 1654.8 1227.87C1662.8 1219.87 1669.33 1212.93 1669.33 1212.4C1669.33 1211.87 1668.8 1211.2 1668.27 1210.8Z" fill="black" fill-opacity="0.16"/>
<path d="M1603.07 120.133C1602.13 119.2 1573.33 147.067 1573.33 148.933C1573.33 152.133 1578.13 148.533 1590.4 136.267C1597.87 128.8 1604 122.267 1604 121.867C1604 121.467 1603.6 120.667 1603.07 120.133Z" fill="black" fill-opacity="0.16"/>
<path d="M1590 422C1578.93 410.933 1575.73 408.4 1574.4 409.733C1573.07 411.067 1575.6 414.267 1586.67 425.333C1594.4 433.067 1601.2 439.2 1601.87 438.933C1605.07 437.867 1603.07 435.067 1590 422Z" fill="black" fill-opacity="0.16"/>
<path d="M1602.53 698.533C1601.6 698 1595.07 703.6 1586.93 711.733C1575.6 723.066 1573.07 726.266 1574.4 727.6C1575.73 728.933 1578.93 726.4 1590 715.333C1597.73 707.6 1604 700.933 1604 700.4C1604 699.866 1603.33 699.066 1602.53 698.533Z" fill="black" fill-opacity="0.16"/>
<path d="M1596.13 1006.8C1590.93 1001.6 1588 999.601 1587.33 1000.67C1586.27 1002.53 1601.07 1018.27 1602.93 1017.2C1604.93 1016 1604 1014.67 1596.13 1006.8Z" fill="black" fill-opacity="0.16"/>
<path d="M1602.93 1276.13C1602.27 1275.73 1595.33 1282 1587.47 1289.87C1577.73 1299.6 1573.6 1304.67 1574.67 1305.33C1575.73 1306 1581.33 1301.33 1590.13 1292.53C1597.73 1284.93 1604 1278.27 1604 1277.73C1604 1277.2 1603.47 1276.53 1602.93 1276.13Z" fill="black" fill-opacity="0.16"/>
<path d="M1579.2 989.6C1578.67 989.067 1576.93 988.667 1575.47 988.667C1572.93 988.667 1572.93 988.8 1575.07 990.934C1576.53 992.534 1577.73 992.8 1578.67 991.867C1579.47 991.067 1579.6 990.134 1579.2 989.6Z" fill="black" fill-opacity="0.16"/>
<path d="M1538.4 763.6C1536.93 762.4 1533.6 765.067 1522.13 776.533C1510.67 788.133 1508.13 791.2 1509.6 792.4C1511.07 793.6 1514.4 790.933 1525.87 779.467C1537.33 767.867 1539.87 764.8 1538.4 763.6Z" fill="black" fill-opacity="0.16"/>
<path d="M1537.6 185.466C1536.93 185.066 1530 191.333 1522.13 199.2C1512.4 208.933 1508.27 214 1509.33 214.666C1510.4 215.333 1516 210.666 1524.8 201.866C1532.4 194.266 1538.67 187.6 1538.67 187.066C1538.67 186.533 1538.13 185.866 1537.6 185.466Z" fill="black" fill-opacity="0.16"/>
<path d="M1524.93 356.933C1514.13 346.133 1510.93 343.6 1509.6 344.933C1508.27 346.267 1510.8 349.467 1521.6 360.267C1534.53 373.333 1538.67 376.133 1538.67 372.267C1538.67 371.333 1532.53 364.533 1524.93 356.933Z" fill="black" fill-opacity="0.16"/>
<path d="M1524.8 935.467C1516 926.667 1510.4 922.001 1509.33 922.667C1508.27 923.334 1512.4 928.401 1522.13 938.134C1534.8 950.801 1538.67 953.601 1538.67 950.267C1538.67 949.734 1532.4 943.067 1524.8 935.467Z" fill="black" fill-opacity="0.16"/>
<path d="M1537.6 1340.67C1537.07 1340.67 1530.13 1347.2 1522.13 1355.2C1512.53 1364.93 1508.27 1370 1509.33 1370.67C1510.4 1371.33 1516 1366.67 1524.8 1357.87C1537.2 1345.47 1540.8 1340.67 1537.6 1340.67Z" fill="black" fill-opacity="0.16"/>
<path d="M1473.33 250.667C1472.27 250 1466.8 254.534 1458.13 263.2L1444.67 276.667L1431.07 263.067C1420.13 252.267 1417.07 249.734 1415.73 251.067C1414.4 252.4 1416.93 255.467 1427.73 266.4L1441.33 280L1427.87 293.467C1419.2 302.267 1414.67 307.6 1415.33 308.667C1416 309.734 1420.8 305.734 1430.13 296.534L1444 282.667L1458 296.667C1469.07 307.734 1472.27 310.267 1473.6 308.934C1474.93 307.6 1472.4 304.4 1461.33 293.334L1447.33 279.334L1461.2 265.467C1470.4 256.267 1474.4 251.334 1473.33 250.667Z" fill="black" fill-opacity="0.16"/>
<path d="M1473.07 828.934C1471.73 827.601 1468.53 830.134 1457.73 840.934L1444 854.667L1430.13 840.801C1420.93 831.601 1416 827.601 1415.33 828.667C1414.67 829.734 1419.2 835.201 1427.87 843.867L1441.47 857.467L1427.73 871.067C1416.8 881.867 1414.4 884.934 1415.73 886.267C1417.07 887.601 1420.13 885.201 1431.07 874.267L1444.67 860.667L1458.13 874.134C1466.8 882.801 1472.27 887.334 1473.33 886.667C1474.4 886.001 1470.4 881.067 1461.2 871.867L1447.33 858.001L1461.07 844.267C1471.87 833.467 1474.4 830.267 1473.07 828.934Z" fill="black" fill-opacity="0.16"/>
<path d="M1473.33 1406.67C1472.27 1406 1466.8 1410.53 1458.13 1419.2L1444.67 1432.67L1431.2 1419.2C1422.4 1410.53 1417.07 1406 1416 1406.67C1413.73 1408 1440.93 1435.33 1444.67 1435.33C1448.27 1435.33 1475.6 1408 1473.33 1406.67Z" fill="black" fill-opacity="0.16"/>
<path d="M1366 198C1354.93 186.933 1351.73 184.4 1350.4 185.733C1349.07 187.067 1351.6 190.267 1362.67 201.333C1370.4 209.067 1377.33 215.333 1378.27 215.333C1382.13 215.333 1379.2 211.2 1366 198Z" fill="black" fill-opacity="0.16"/>
<path d="M1378.93 344.133C1378.27 343.733 1371.33 350 1363.47 357.867C1353.73 367.6 1349.6 372.667 1350.67 373.333C1351.73 374 1357.33 369.333 1366.13 360.533C1373.73 352.933 1380 346.267 1380 345.733C1380 345.2 1379.47 344.533 1378.93 344.133Z" fill="black" fill-opacity="0.16"/>
<path d="M1366.13 776.8C1357.33 768 1351.73 763.334 1350.67 764C1349.6 764.667 1353.73 769.734 1363.47 779.467C1376.13 792.134 1380 794.934 1380 791.6C1380 791.067 1373.73 784.4 1366.13 776.8Z" fill="black" fill-opacity="0.16"/>
<path d="M1378.27 922C1377.33 922 1370.4 928.267 1362.67 936C1351.6 947.067 1349.07 950.267 1350.4 951.6C1351.73 952.933 1354.93 950.4 1366 939.333C1379.2 926.133 1382.13 922 1378.27 922Z" fill="black" fill-opacity="0.16"/>
<path d="M1366.13 1354.13C1357.33 1345.33 1351.73 1340.67 1350.67 1341.33C1349.6 1342 1353.73 1347.07 1363.47 1356.8C1376.13 1369.47 1380 1372.27 1380 1368.93C1380 1368.4 1373.73 1361.73 1366.13 1354.13Z" fill="black" fill-opacity="0.16"/>
<path d="M1301.47 133.467C1289.87 122 1286.8 119.467 1285.6 120.934C1284.4 122.4 1287.07 125.734 1298.53 137.2C1310.13 148.667 1313.2 151.2 1314.4 149.734C1315.6 148.267 1312.93 144.934 1301.47 133.467Z" fill="black" fill-opacity="0.16"/>
<path d="M1314.27 409.6C1311.73 408.667 1283.07 437.334 1285.33 438.667C1286.4 439.334 1292.13 434.534 1301.6 425.067C1311.87 414.8 1315.73 410.134 1314.27 409.6Z" fill="black" fill-opacity="0.16"/>
<path d="M1301.33 712C1291.6 702.267 1286.27 697.867 1285.33 698.8C1284.53 699.6 1288.93 704.934 1298.67 714.667C1308.4 724.4 1313.73 728.8 1314.67 727.867C1315.47 727.067 1311.07 721.734 1301.33 712Z" fill="black" fill-opacity="0.16"/>
<path d="M1301.47 1289.47C1291.73 1279.73 1286.67 1275.6 1286 1276.67C1284.53 1278.93 1312.8 1307.07 1314.67 1305.2C1315.47 1304.4 1311.2 1299.2 1301.47 1289.47Z" fill="black" fill-opacity="0.16"/>
<path d="M1313.73 986.8C1313.2 986.267 1306.4 992.4 1298.4 1000.27C1287.07 1011.6 1284.4 1014.93 1285.6 1016.4C1286.8 1017.87 1289.73 1015.47 1300.93 1004.4C1314.13 991.333 1315.87 988.933 1313.73 986.8Z" fill="black" fill-opacity="0.16"/>
<path d="M1236.93 68.9334C1224 56.0001 1220 53.2001 1220 57.0667C1220 59.7334 1247.47 86.4001 1249.2 85.4667C1250 84.9334 1250.67 84.1334 1250.67 83.6001C1250.67 83.0667 1244.53 76.5334 1236.93 68.9334Z" fill="black" fill-opacity="0.16"/>
<path d="M1249.33 474.666C1247.07 473.2 1218.93 501.466 1220.8 503.333C1221.6 504.133 1226.8 499.866 1236.53 490.133C1246.27 480.4 1250.4 475.333 1249.33 474.666Z" fill="black" fill-opacity="0.16"/>
<path d="M1236.13 646.8C1226.4 637.066 1221.33 632.933 1220.67 634C1219.2 636.266 1247.47 664.4 1249.33 662.533C1250.13 661.733 1245.87 656.533 1236.13 646.8Z" fill="black" fill-opacity="0.16"/>
<path d="M1249.2 1051.87C1247.47 1050.93 1220 1077.6 1220 1080.27C1220 1081.2 1220.8 1082 1221.73 1082C1223.33 1082 1250.67 1055.33 1250.67 1053.73C1250.67 1053.2 1250 1052.4 1249.2 1051.87Z" fill="black" fill-opacity="0.16"/>
<path d="M1236.13 1224.13C1226.4 1214.4 1221.33 1210.27 1220.67 1211.33C1219.2 1213.6 1247.47 1241.73 1249.33 1239.87C1250.13 1239.07 1245.87 1233.87 1236.13 1224.13Z" fill="black" fill-opacity="0.16"/>
<path d="M1184.4 -38.5335C1183.87 -39.0668 1177.33 -33.2001 1169.73 -25.7335L1156 -12.0001L1142 -26.0001C1130.93 -37.0668 1127.73 -39.6001 1126.4 -38.2668C1125.07 -36.9335 1127.6 -33.7335 1138.67 -22.6668L1152.67 -8.6668L1138.8 5.19986C1129.6 14.5332 1125.6 19.3332 1126.67 19.9999C1127.73 20.6665 1133.07 16.1332 1141.87 7.46653L1155.33 -6.00014L1168.93 7.59987C1179.73 18.3999 1182.93 20.9332 1184.27 19.5999C1185.6 18.2665 1183.07 15.0665 1172.27 4.26653L1158.67 -9.33347L1172 -22.6668C1179.33 -30.0001 1185.33 -36.2668 1185.33 -36.8001C1185.33 -37.2001 1184.93 -38.0001 1184.4 -38.5335Z" fill="black" fill-opacity="0.16"/>
<path d="M1184 540C1182.93 539.333 1177.47 543.867 1168.8 552.533L1155.33 566L1141.87 552.533C1133.07 543.867 1127.73 539.333 1126.67 540C1125.6 540.667 1129.6 545.467 1138.8 554.8L1152.67 568.667L1138.8 582.533C1129.6 591.867 1125.6 596.667 1126.67 597.333C1127.73 598 1133.07 593.467 1141.87 584.8L1155.33 571.333L1168.8 584.8C1177.47 593.467 1182.93 598 1184 597.333C1185.07 596.667 1181.07 591.733 1171.87 582.533L1158 568.667L1171.87 554.8C1181.07 545.6 1185.07 540.667 1184 540Z" fill="black" fill-opacity="0.16"/>
<path d="M1183.87 1117.2C1183.07 1116.67 1176.67 1122.13 1168.8 1129.87L1155.33 1143.33L1141.87 1129.87C1133.07 1121.2 1127.73 1116.67 1126.67 1117.33C1125.6 1118 1129.6 1122.8 1138.8 1132.13L1152.67 1146L1138.93 1159.73C1128.13 1170.53 1125.6 1173.73 1126.93 1175.07C1128.27 1176.4 1131.47 1173.87 1142.27 1163.07L1156 1149.33L1169.87 1163.2C1179.07 1172.4 1184 1176.4 1184.67 1175.33C1185.33 1174.27 1180.8 1168.8 1172.13 1160.13L1158.67 1146.67L1172 1133.33C1179.33 1126 1185.33 1119.6 1185.33 1119.07C1185.33 1118.53 1184.67 1117.73 1183.87 1117.2Z" fill="black" fill-opacity="0.16"/>
<path d="M1090.67 56.0004C1088.4 54.5338 1060.27 82.8004 1062.13 84.6671C1062.93 85.4671 1068.13 81.2004 1077.87 71.4671C1087.6 61.7338 1091.73 56.6671 1090.67 56.0004Z" fill="black" fill-opacity="0.16"/>
<path d="M1077.6 488.267C1069.73 480.4 1062.8 474 1062.27 474C1059.2 474 1062.93 478.933 1075.33 491.333C1084.67 500.533 1089.73 504.8 1090.67 503.867C1091.47 503.067 1087.2 497.867 1077.6 488.267Z" fill="black" fill-opacity="0.16"/>
<path d="M1090.67 633.333C1089.6 632.667 1084 637.333 1075.2 646.133C1062.8 658.533 1059.2 663.333 1062.4 663.333C1062.93 663.333 1069.87 656.8 1077.87 648.8C1087.47 639.067 1091.73 634 1090.67 633.333Z" fill="black" fill-opacity="0.16"/>
<path d="M1077.47 1065.47C1067.73 1055.73 1062.67 1051.6 1062 1052.67C1060.53 1054.93 1088.8 1083.07 1090.67 1081.2C1091.47 1080.4 1087.2 1075.2 1077.47 1065.47Z" fill="black" fill-opacity="0.16"/>
<path d="M1090.4 1211.6C1089.07 1210.27 1086.53 1212.13 1078.4 1220.27C1072.67 1226 1068 1231.73 1068 1233.07C1068 1234.53 1067.47 1235.07 1066.4 1234.53C1065.6 1234 1065.33 1234.13 1065.87 1235.07C1066.4 1235.87 1065.47 1236.67 1063.73 1236.93C1060.27 1237.33 1059.6 1239.73 1062.67 1240.4C1063.73 1240.53 1070.8 1234.53 1078.4 1226.93C1089.2 1216.13 1091.73 1212.93 1090.4 1211.6Z" fill="black" fill-opacity="0.16"/>
<path d="M1025.6 121.067C1024.93 119.867 1019.87 124.133 1010 134C1000.27 143.733 995.867 149.067 996.8 150C998.533 151.733 1026.93 123.333 1025.6 121.067Z" fill="black" fill-opacity="0.16"/>
<path d="M1012.13 422.8C1002.4 413.066 997.333 408.933 996.667 410C995.2 412.266 1023.47 440.4 1025.33 438.533C1026.13 437.733 1021.87 432.533 1012.13 422.8Z" fill="black" fill-opacity="0.16"/>
<path d="M1025.33 698.666C1023.07 697.2 994.933 725.466 996.8 727.333C997.6 728.133 1002.8 723.866 1012.53 714.133C1022.27 704.4 1026.4 699.333 1025.33 698.666Z" fill="black" fill-opacity="0.16"/>
<path d="M1012 1000C1002.4 990.4 997.333 986.267 996.667 987.334C996 988.4 1000.8 994.134 1010.27 1003.6C1020.53 1013.87 1025.2 1017.73 1025.73 1016.27C1026.13 1015.07 1021.33 1009.33 1012 1000Z" fill="black" fill-opacity="0.16"/>
<path d="M1025.2 1275.87C1024.27 1275.33 1017.73 1280.93 1009.6 1289.07C998.267 1300.4 995.733 1303.6 997.067 1304.93C998.4 1306.27 1001.6 1303.73 1012.67 1292.67C1020.4 1284.93 1026.67 1278.27 1026.67 1277.73C1026.67 1277.2 1026 1276.4 1025.2 1275.87Z" fill="black" fill-opacity="0.16"/>
<path d="M960.267 185.466C959.6 185.066 952.667 191.333 944.8 199.2C935.067 208.933 930.933 214 932 214.666C933.067 215.333 938.667 210.666 947.467 201.866C955.067 194.266 961.333 187.6 961.333 187.066C961.333 186.533 960.8 185.866 960.267 185.466Z" fill="black" fill-opacity="0.16"/>
<path d="M946.8 357.467C937.067 347.867 932 343.6 931.333 344.667C930.667 345.734 935.333 351.334 944.133 360.134C956.533 372.534 961.333 376.134 961.333 372.934C961.333 372.4 954.8 365.467 946.8 357.467Z" fill="black" fill-opacity="0.16"/>
<path d="M959.6 763.333C956.8 763.333 930.267 790.8 931.333 792.666C932 793.733 937.067 789.466 946.8 779.866C954.8 771.866 961.333 764.933 961.333 764.4C961.333 763.733 960.533 763.333 959.6 763.333Z" fill="black" fill-opacity="0.16"/>
<path d="M947.467 935.467C938.667 926.667 933.067 922.001 932 922.667C930.933 923.334 935.067 928.401 944.8 938.134C957.467 950.801 961.333 953.601 961.333 950.267C961.333 949.734 955.067 943.067 947.467 935.467Z" fill="black" fill-opacity="0.16"/>
<path d="M959.867 1341.2C958.933 1340.67 952.4 1346.27 944.267 1354.4C932.933 1365.73 930.4 1368.93 931.733 1370.27C933.067 1371.6 936.267 1369.07 947.333 1358C955.067 1350.27 961.333 1343.6 961.333 1343.07C961.333 1342.53 960.667 1341.73 959.867 1341.2Z" fill="black" fill-opacity="0.16"/>
<path d="M895.467 1406.53C893.6 1405.87 890 1408.8 879.867 1418.8L866.667 1432L853.6 1418.93C846.533 1411.87 839.867 1406 838.933 1406C835.2 1406 838 1410.13 850.4 1422.4C859.867 1431.87 864.267 1435.33 866.667 1435.33C871.6 1435.33 898.933 1407.87 895.467 1406.53Z" fill="black" fill-opacity="0.16"/>
<path d="M895.067 250.8C894.533 250.267 888 256.134 880.4 263.6L866.667 277.334L852.8 263.467C843.6 254.267 838.667 250.267 838 251.334C837.333 252.4 841.867 257.867 850.533 266.534L864 280L850.533 293.467C841.867 302.267 837.333 307.6 838 308.667C838.667 309.734 843.467 305.734 852.8 296.534L866.667 282.667L880.533 296.534C889.733 305.734 894.667 309.734 895.333 308.667C896 307.6 891.467 302.134 882.8 293.467L869.333 280L882.667 266.667C890 259.334 896 253.067 896 252.534C896 252.134 895.6 251.334 895.067 250.8Z" fill="black" fill-opacity="0.16"/>
<path d="M895.067 828.133C894.533 827.6 888 833.467 880.4 840.933L866.667 854.667L852.8 840.8C843.6 831.6 838.667 827.6 838 828.667C837.333 829.733 841.867 835.2 850.533 843.867L864 857.333L850.667 870.667C838.8 882.533 835.2 887.333 838.267 887.333C838.8 887.333 845.467 881.2 852.933 873.733L866.667 860L880.533 873.867C889.733 883.067 894.667 887.067 895.333 886C896 884.933 891.467 879.467 882.8 870.8L869.333 857.333L882.667 844C890 836.667 896 830.4 896 829.867C896 829.467 895.6 828.667 895.067 828.133Z" fill="black" fill-opacity="0.16"/>
<path d="M788.133 198.8C778.4 189.066 773.333 184.933 772.667 186C771.2 188.266 799.467 216.4 801.333 214.533C802.133 213.733 797.867 208.533 788.133 198.8Z" fill="black" fill-opacity="0.16"/>
<path d="M801.733 344.133C800.8 343.2 772 371.067 772 372.933C772 376.133 776.8 372.533 789.067 360.267C796.533 352.8 802.667 346.267 802.667 345.867C802.667 345.467 802.267 344.667 801.733 344.133Z" fill="black" fill-opacity="0.16"/>
<path d="M788 776C778.4 766.4 773.333 762.267 772.667 763.334C772 764.4 776.8 770.134 786.267 779.6C796.533 789.867 801.2 793.734 801.733 792.267C802.133 791.067 797.333 785.334 788 776Z" fill="black" fill-opacity="0.16"/>
<path d="M801.333 922.666C799.067 921.2 770.933 949.466 772.8 951.333C773.6 952.133 778.8 947.866 788.533 938.133C798.267 928.4 802.4 923.333 801.333 922.666Z" fill="black" fill-opacity="0.16"/>
<path d="M788.667 1354C777.6 1342.93 774.4 1340.4 773.067 1341.73C771.733 1343.07 774.267 1346.27 785.333 1357.33C798.4 1370.4 801.2 1372.4 802.267 1369.2C802.533 1368.53 796.4 1361.73 788.667 1354Z" fill="black" fill-opacity="0.16"/>
<path d="M722.8 133.467C713.067 123.867 708 119.6 707.333 120.667C706.667 121.734 711.333 127.334 720.133 136.134C732.533 148.534 737.333 152.134 737.333 148.934C737.333 148.4 730.8 141.467 722.8 133.467Z" fill="black" fill-opacity="0.16"/>
<path d="M736.267 409.466C735.6 409.066 728.667 415.333 720.8 423.2C711.067 432.933 706.933 438 708 438.666C709.067 439.333 714.667 434.666 723.467 425.866C731.067 418.266 737.333 411.6 737.333 411.066C737.333 410.533 736.8 409.866 736.267 409.466Z" fill="black" fill-opacity="0.16"/>
<path d="M723.467 711.466C714.667 702.666 709.067 698 708 698.666C706.933 699.333 711.067 704.4 720.8 714.133C733.467 726.8 737.333 729.6 737.333 726.266C737.333 725.733 731.067 719.066 723.467 711.466Z" fill="black" fill-opacity="0.16"/>
<path d="M736.4 986.8C734.933 985.334 706.8 1014.13 707.6 1016.27C708.133 1017.6 712.8 1013.87 722.8 1003.87C730.8 995.867 737.333 989.067 737.333 988.534C737.333 988.134 736.933 987.334 736.4 986.8Z" fill="black" fill-opacity="0.16"/>
<path d="M723.333 1288.67C712.267 1277.6 709.067 1275.07 707.733 1276.4C706.4 1277.73 708.933 1280.93 720 1292C733.067 1305.07 735.867 1307.07 736.933 1303.87C737.2 1303.2 731.067 1296.4 723.333 1288.67Z" fill="black" fill-opacity="0.16"/>
<path d="M672 474.667C669.734 473.334 640.934 502.134 642.667 503.867C643.6 504.8 648.934 500.4 658.8 490.534C668.8 480.534 673.067 475.334 672 474.667Z" fill="black" fill-opacity="0.16"/>
<path d="M658.667 646.666C648.933 636.933 643.6 632.533 642.667 633.466C641.867 634.266 646.267 639.6 656 649.333C665.733 659.066 671.067 663.466 672 662.533C672.8 661.733 668.4 656.4 658.667 646.666Z" fill="black" fill-opacity="0.16"/>
<path d="M658.933 1224.27C647.6 1212.93 644.267 1210.27 642.933 1211.6C641.6 1212.93 644.133 1216.13 654.933 1226.93C662.533 1234.53 669.333 1240.67 670.267 1240.67C674.4 1240.67 672.133 1237.47 658.933 1224.27Z" fill="black" fill-opacity="0.16"/>
<path d="M658.133 68.8003C649.333 60.0003 643.733 55.3336 642.667 56.0003C641.6 56.667 645.733 61.7336 655.467 71.467C668.133 84.1336 672 86.9336 672 83.6003C672 83.067 665.733 76.4003 658.133 68.8003Z" fill="black" fill-opacity="0.16"/>
<path d="M670.933 1052.13C670.267 1051.73 663.333 1058 655.467 1065.87C645.733 1075.6 641.6 1080.67 642.667 1081.33C643.733 1082 649.333 1077.33 658.133 1068.53C665.733 1060.93 672 1054.27 672 1053.73C672 1053.2 671.467 1052.53 670.933 1052.13Z" fill="black" fill-opacity="0.16"/>
<path d="M606.4 -37.733C605.067 -39.0664 601.867 -36.533 591.067 -25.733L577.334 -11.9997L563.467 -25.8664C554.267 -35.0664 549.334 -39.0664 548.667 -37.9997C548 -36.933 552.534 -31.4664 561.2 -22.7997L574.667 -9.33303L561.067 4.26697C550.134 15.2003 547.734 18.267 549.067 19.6003C550.4 20.9336 553.467 18.5336 564.267 7.6003L577.867 -6.13303L591.467 7.46697C600.134 16.1336 605.6 20.667 606.667 20.0003C607.734 19.3336 603.734 14.4003 594.534 5.2003L580.667 -8.66637L594.4 -22.3997C605.2 -33.1997 607.734 -36.3997 606.4 -37.733Z" fill="black" fill-opacity="0.16"/>
<path d="M606.667 540C605.6 539.333 600.133 543.867 591.467 552.533L578 566L564.533 552.533C555.733 543.867 550.4 539.333 549.333 540C548.267 540.667 552.267 545.467 561.467 554.8L575.333 568.667L561.6 582.4C554.133 589.867 548 596.533 548 597.067C548 600.133 552.8 596.533 564.667 584.667L578 571.333L591.467 584.8C600.133 593.467 605.6 598 606.667 597.333C607.733 596.667 603.733 591.733 594.533 582.533L580.667 568.667L594.533 554.8C603.733 545.6 607.733 540.667 606.667 540Z" fill="black" fill-opacity="0.16"/>
<path d="M606.667 1117.33C605.6 1116.67 600.133 1121.2 591.467 1129.87L578 1143.33L564.4 1129.73C553.467 1118.93 550.4 1116.4 549.067 1117.73C547.733 1119.07 550.267 1122.13 561.067 1133.07L574.667 1146.67L561.2 1160.13C552.533 1168.93 548 1174.27 548.667 1175.33C549.333 1176.4 554.133 1172.4 563.467 1163.2L577.333 1149.33L591.067 1163.07C601.867 1173.87 605.067 1176.4 606.4 1175.07C607.733 1173.73 605.2 1170.53 594.4 1159.73L580.667 1146L594.533 1132.13C603.733 1122.93 607.733 1118 606.667 1117.33Z" fill="black" fill-opacity="0.16"/>
<path d="M511.6 55.333C510.667 55.333 503.733 61.5997 496 69.333C484.933 80.3997 482.4 83.5997 483.733 84.933C485.067 86.2663 488.267 83.733 499.333 72.6663C512.533 59.4663 515.467 55.333 511.6 55.333Z" fill="black" fill-opacity="0.16"/>
<path d="M499.467 487.466C490.667 478.666 485.067 474 484 474.666C482.933 475.333 487.067 480.4 496.8 490.133C509.467 502.8 513.333 505.6 513.333 502.266C513.333 501.733 507.067 495.066 499.467 487.466Z" fill="black" fill-opacity="0.16"/>
<path d="M512.267 633.466C511.6 633.066 504.667 639.333 496.8 647.2C487.067 656.933 482.933 662 484 662.666C485.067 663.333 490.667 658.666 499.467 649.866C507.067 642.266 513.333 635.6 513.333 635.066C513.333 634.533 512.8 633.866 512.267 633.466Z" fill="black" fill-opacity="0.16"/>
<path d="M499.333 1064.67C488.267 1053.6 485.067 1051.07 483.733 1052.4C482.4 1053.73 484.933 1056.93 496 1068C503.733 1075.73 510.667 1082 511.6 1082C515.467 1082 512.533 1077.87 499.333 1064.67Z" fill="black" fill-opacity="0.16"/>
<path d="M512.267 1210.8C511.6 1210.4 504.667 1216.67 496.8 1224.53C487.067 1234.27 482.933 1239.33 484 1240C485.067 1240.67 490.667 1236 499.467 1227.2C507.067 1219.6 513.333 1212.93 513.333 1212.4C513.333 1211.87 512.8 1211.2 512.267 1210.8Z" fill="black" fill-opacity="0.16"/>
<path d="M447.467 121.2C444 119.867 416.267 147.467 418.934 149.733C420.4 150.933 423.734 148.267 435.334 136.667C447.334 124.667 449.467 122 447.467 121.2Z" fill="black" fill-opacity="0.16"/>
<path d="M434.933 422.934C425.733 413.734 420.133 409.067 419.067 409.734C417.867 410.4 422.133 415.467 432 425.334C441.733 435.067 447.067 439.467 448 438.534C448.8 437.734 444.533 432.534 434.933 422.934Z" fill="black" fill-opacity="0.16"/>
<path d="M448 698.667C445.733 697.334 416.933 726.134 418.667 727.867C419.6 728.8 424.933 724.4 434.8 714.534C444.8 704.534 449.067 699.334 448 698.667Z" fill="black" fill-opacity="0.16"/>
<path d="M434.8 1000.13C423.2 988.666 420.133 986.133 418.933 987.6C417.733 989.066 420.4 992.4 431.867 1003.87C443.467 1015.33 446.533 1017.87 447.733 1016.4C448.933 1014.93 446.267 1011.6 434.8 1000.13Z" fill="black" fill-opacity="0.16"/>
<path d="M447.6 1276.27C445.067 1275.33 416.4 1304 418.667 1305.33C419.733 1306 425.467 1301.2 434.933 1291.73C445.2 1281.47 449.067 1276.8 447.6 1276.27Z" fill="black" fill-opacity="0.16"/>
<path d="M382.533 185.2C380.8 184.266 353.333 210.933 353.333 213.6C353.333 214.533 354.133 215.333 355.067 215.333C356.667 215.333 384 188.666 384 187.066C384 186.533 383.333 185.733 382.533 185.2Z" fill="black" fill-opacity="0.16"/>
<path d="M369.467 357.467C359.733 347.733 354.667 343.6 354 344.667C352.533 346.933 380.8 375.067 382.667 373.2C383.467 372.4 379.2 367.2 369.467 357.467Z" fill="black" fill-opacity="0.16"/>
<path d="M382.667 764C380.4 762.534 352.267 790.8 354.133 792.667C354.933 793.467 360.133 789.2 369.867 779.467C379.6 769.734 383.733 764.667 382.667 764Z" fill="black" fill-opacity="0.16"/>
<path d="M370.133 935.466C359.467 924.933 355.733 921.866 353.867 922.533C351.867 923.333 354.133 926.133 366 938C374.133 946.133 381.2 952.533 381.867 952.266C385.067 951.2 383.067 948.4 370.133 935.466Z" fill="black" fill-opacity="0.16"/>
<path d="M382.667 1341.33C380.4 1339.87 352.267 1368.13 354.133 1370C354.933 1370.8 360.133 1366.53 369.867 1356.8C379.6 1347.07 383.733 1342 382.667 1341.33Z" fill="black" fill-opacity="0.16"/>
<path d="M317.2 250.533C316.4 250 310 255.466 302.134 263.2L288.667 276.666L275.2 263.2C266.4 254.533 261.067 250 260 250.666C258.933 251.333 262.934 256.133 272.134 265.466L286 279.333L272 293.333C260.933 304.4 258.4 307.6 259.733 308.933C261.067 310.266 264.267 307.733 275.333 296.666L289.334 282.666L303.2 296.533C312.4 305.733 317.334 309.733 318 308.666C318.667 307.6 314.134 302.133 305.467 293.466L292 280L305.334 266.666C312.667 259.333 318.667 252.933 318.667 252.4C318.667 251.866 318 251.066 317.2 250.533Z" fill="black" fill-opacity="0.16"/>
<path d="M317.733 828.133C317.2 827.6 310.667 833.467 303.067 840.933L289.333 854.667L275.733 841.067C265.067 830.533 261.6 827.733 260 828.667C258.4 829.733 260.8 832.667 272 844L286 858L272.133 871.867C262.933 881.2 258.933 886 260 886.667C261.067 887.333 266.4 882.8 275.2 874.133L288.667 860.667L302.267 874.267C313.067 885.067 316.267 887.6 317.6 886.267C318.933 884.933 316.4 881.733 305.6 870.933L292 857.333L305.333 844C312.667 836.667 318.667 830.4 318.667 829.867C318.667 829.467 318.267 828.667 317.733 828.133Z" fill="black" fill-opacity="0.16"/>
<path d="M317.333 1406.67C316.267 1406 310.8 1410.53 302.133 1419.2L288.667 1432.67L275.2 1419.2C266.4 1410.53 261.067 1406 260 1406.67C257.733 1408 284.933 1435.33 288.667 1435.33C292.267 1435.33 319.6 1408 317.333 1406.67Z" fill="black" fill-opacity="0.16"/>
<path d="M210.8 198.8C201.067 189.066 196 184.933 195.333 186C193.867 188.266 222.133 216.4 224 214.533C224.8 213.733 220.533 208.533 210.8 198.8Z" fill="black" fill-opacity="0.16"/>
<path d="M223.733 344.933C222.4 343.6 219.2 346.133 208.4 356.933C200.8 364.533 194.667 371.333 194.667 372.267C194.667 376.4 197.867 374.133 211.067 360.933C222.4 349.6 225.067 346.267 223.733 344.933Z" fill="black" fill-opacity="0.16"/>
<path d="M210.8 776.133C199.2 764.666 196.134 762.133 194.934 763.6C193.734 765.066 196.4 768.4 207.867 779.866C219.467 791.333 222.534 793.866 223.734 792.4C224.934 790.933 222.267 787.6 210.8 776.133Z" fill="black" fill-opacity="0.16"/>
<path d="M224 922.666C221.733 921.2 193.6 949.466 195.467 951.333C196.267 952.133 201.467 947.866 211.2 938.133C220.933 928.4 225.067 923.333 224 922.666Z" fill="black" fill-opacity="0.16"/>
<path d="M210.667 1354.67C200.933 1344.93 195.6 1340.53 194.667 1341.47C193.867 1342.27 198.267 1347.6 208 1357.33C217.733 1367.07 223.067 1371.47 224 1370.53C224.8 1369.73 220.4 1364.4 210.667 1354.67Z" fill="black" fill-opacity="0.16"/>
<path d="M145.467 133.467C135.733 123.733 130.667 119.6 130 120.667C128.533 122.933 156.8 151.067 158.667 149.2C159.467 148.4 155.2 143.2 145.467 133.467Z" fill="black" fill-opacity="0.16"/>
<path d="M158.533 409.2C157.6 408.667 151.067 414.267 142.933 422.4C131.6 433.733 129.067 436.933 130.4 438.267C131.733 439.6 134.933 437.067 146 426C153.733 418.267 160 411.6 160 411.067C160 410.533 159.333 409.733 158.533 409.2Z" fill="black" fill-opacity="0.16"/>
<path d="M146.267 711.6C133.333 698.667 129.333 695.867 129.333 699.734C129.333 702.4 156.8 729.067 158.533 728.134C159.333 727.6 160 726.8 160 726.267C160 725.734 153.867 719.2 146.267 711.6Z" fill="black" fill-opacity="0.16"/>
<path d="M158.933 987.734C158.267 986.534 153.2 990.8 143.333 1000.67C133.6 1010.4 129.2 1015.73 130.133 1016.67C131.867 1018.4 160.267 990 158.933 987.734Z" fill="black" fill-opacity="0.16"/>
<path d="M145.467 1289.47C135.733 1279.73 130.667 1275.6 130 1276.67C128.533 1278.93 156.8 1307.07 158.667 1305.2C159.467 1304.4 155.2 1299.2 145.467 1289.47Z" fill="black" fill-opacity="0.16"/>
<path d="M80.8001 68.8003C72.0001 60.0003 66.4001 55.3336 65.3334 56.0003C64.2667 56.667 68.4001 61.7336 78.1334 71.467C90.8001 84.1336 94.6667 86.9336 94.6667 83.6003C94.6667 83.067 88.4001 76.4003 80.8001 68.8003Z" fill="black" fill-opacity="0.16"/>
<path d="M93.2001 474.533C92.2668 474 85.7334 479.6 77.6001 487.733C66.2668 499.066 63.7334 502.266 65.0668 503.6C66.4001 504.933 69.6001 502.4 80.6668 491.333C88.4001 483.6 94.6668 476.933 94.6668 476.4C94.6668 475.866 94.0001 475.066 93.2001 474.533Z" fill="black" fill-opacity="0.16"/>
<path d="M80.6668 646C69.6001 634.933 66.4001 632.4 65.0668 633.733C63.7335 635.067 66.2668 638.267 77.3335 649.333C90.4001 662.4 93.2001 664.4 94.2668 661.2C94.5335 660.533 88.4001 653.733 80.6668 646Z" fill="black" fill-opacity="0.16"/>
<path d="M93.6 1052.13C92.9334 1051.73 86 1058 78.1334 1065.87C68.4 1075.6 64.2667 1080.67 65.3333 1081.33C66.4 1082 72 1077.33 80.8 1068.53C88.4 1060.93 94.6667 1054.27 94.6667 1053.73C94.6667 1053.2 94.1334 1052.53 93.6 1052.13Z" fill="black" fill-opacity="0.16"/>
<path d="M80.1334 1224.13C70.4001 1214.53 65.3334 1210.27 64.6667 1211.33C64.0001 1212.4 68.8001 1218.13 78.1334 1227.47C90.8001 1240.13 94.6667 1242.93 94.6667 1239.6C94.6667 1239.07 88.1334 1232.13 80.1334 1224.13Z" fill="black" fill-opacity="0.16"/>
<path d="M28.8001 539.867C25.3334 538.534 3.60006 560.4 4.26673 564.534C4.66673 566.934 6.66673 565.467 17.8667 554.134C28.8001 543.067 30.8001 540.667 28.8001 539.867Z" fill="black" fill-opacity="0.16"/>
<path d="M28.1334 16.0002C26.5334 15.0669 24.9334 17.6002 26.0001 19.3336C26.9334 20.8002 29.3334 19.8669 29.3334 18.0002C29.3334 17.3336 28.8001 16.5336 28.1334 16.0002Z" fill="black" fill-opacity="0.16"/>
<path d="M16.6668 582C5.60012 571.067 4.00012 569.867 4.00012 572.667C4.00012 575.067 7.06679 579.067 15.0668 587.067C21.0668 593.067 26.8001 598 27.7335 598C31.4668 598 28.6668 593.867 16.6668 582Z" fill="black" fill-opacity="0.16"/>
<path d="M28.1334 1117.47C26.8 1116.53 22.2667 1121.33 21.8667 1124.13C21.6 1125.6 22.5334 1125.33 25.4667 1123.2C29.4667 1120.4 30.2667 1118.67 28.1334 1117.47Z" fill="black" fill-opacity="0.16"/>
<path d="M19.8668 1163.73C18.9334 1162.8 16.9334 1162 15.4668 1162C12.9334 1162 12.9334 1162.13 14.9334 1164.13C16.0001 1165.33 18.0001 1166 19.2001 1165.73C21.0668 1165.47 21.2001 1165.07 19.8668 1163.73Z" fill="black" fill-opacity="0.16"/>
<path d="M17.0668 4.93301C16.1335 3.99967 14.2668 3.33301 12.8001 3.33301C10.4001 3.33301 10.2668 3.46634 12.6668 5.99967C15.0668 8.66634 18.6668 9.59968 18.6668 7.59968C18.6668 7.06634 18.0001 5.86634 17.0668 4.93301Z" fill="black" fill-opacity="0.16"/>
<path d="M12.1334 1133.6C10.6668 1134 8.26677 1135.6 6.66677 1137.33C2.26677 1142 6.00011 1143.07 10.8001 1138.53C15.3334 1134.27 15.7334 1132.67 12.1334 1133.6Z" fill="black" fill-opacity="0.16"/>
</g>
</g>
<defs>
<clipPath id="clip0_206_286">
<rect width="1733.33" height="1729.33" fill="white"/>
</clipPath>
<clipPath id="clip1_206_286">
<rect width="1733.33" height="1729.33" fill="white" transform="translate(1733.33 -298) rotate(90)"/>
</clipPath>
</defs>
</svg>
